<svg xmlns="http://www.w3.org/2000/svg" xmlns:xlink="http://www.w3.org/1999/xlink" version="1.1" width="256" height="256" viewBox="0 0 256 256" xml:space="preserve">

<defs>
</defs>
<g style="stroke: none; stroke-width: 0; stroke-dasharray: none; stroke-linecap: butt; stroke-linejoin: miter; stroke-miterlimit: 10; fill: none; fill-rule: nonzero; opacity: 1;" transform="translate(1.4065934065934016 1.4065934065934016) scale(2.81 2.81)" >
	<path d="M 45 90 C 20.187 90 0 69.813 0 45 C 0 20.187 20.187 0 45 0 c 24.813 0 45 20.187 45 45 C 90 69.813 69.813 90 45 90 z M 45 4 C 22.393 4 4 22.393 4 45 s 18.393 41 41 41 s 41 -18.393 41 -41 S 67.607 4 45 4 z" style="stroke: none; stroke-width: 1; stroke-dasharray: none; stroke-linecap: butt; stroke-linejoin: miter; stroke-miterlimit: 10; fill: rgb(0,0,0); fill-rule: nonzero; opacity: 1;" transform=" matrix(1 0 0 1 0 0) " stroke-linecap="round" />
	<path d="M 57.433 70.102 H 32.567 c -1.104 0 -2 -0.896 -2 -2 s 0.896 -2 2 -2 h 24.865 c 1.104 0 2 0.896 2 2 S 58.537 70.102 57.433 70.102 z" style="stroke: none; stroke-width: 1; stroke-dasharray: none; stroke-linecap: butt; stroke-linejoin: miter; stroke-miterlimit: 10; fill: rgb(0,0,0); fill-rule: nonzero; opacity: 1;" transform=" matrix(1 0 0 1 0 0) " stroke-linecap="round" />
	<path d="M 29 54.081 c -3.89 0 -7.78 -1.569 -11.562 -4.708 c -0.85 -0.705 -0.967 -1.967 -0.262 -2.816 c 0.706 -0.85 1.967 -0.967 2.816 -0.262 c 6.145 5.1 11.869 5.1 18.014 0 c 0.851 -0.706 2.111 -0.588 2.816 0.262 c 0.706 0.85 0.588 2.111 -0.262 2.816 C 36.78 52.512 32.89 54.081 29 54.081 z" style="stroke: none; stroke-width: 1; stroke-dasharray: none; stroke-linecap: butt; stroke-linejoin: miter; stroke-miterlimit: 10; fill: rgb(0,0,0); fill-rule: nonzero; opacity: 1;" transform=" matrix(1 0 0 1 0 0) " stroke-linecap="round" />
	<path d="M 61 54.081 c -3.89 0 -7.779 -1.569 -11.562 -4.708 c -0.85 -0.705 -0.967 -1.967 -0.262 -2.816 c 0.706 -0.85 1.968 -0.967 2.816 -0.262 c 6.145 5.1 11.869 5.1 18.014 0 c 0.85 -0.706 2.111 -0.588 2.816 0.262 c 0.705 0.85 0.588 2.111 -0.262 2.816 C 68.779 52.512 64.89 54.081 61 54.081 z" style="stroke: none; stroke-width: 1; stroke-dasharray: none; stroke-linecap: butt; stroke-linejoin: miter; stroke-miterlimit: 10; fill: rgb(0,0,0); fill-rule: nonzero; opacity: 1;" transform=" matrix(1 0 0 1 0 0) " stroke-linecap="round" />
	<path d="M 22.384 35.087 c -0.857 0 -1.751 -0.07 -2.683 -0.211 c -1.092 -0.166 -1.843 -1.185 -1.678 -2.277 s 1.183 -1.841 2.277 -1.678 c 5.114 0.775 8.29 -1.141 9.992 -6.024 c 0.364 -1.043 1.503 -1.594 2.547 -1.23 c 1.043 0.364 1.594 1.504 1.23 2.547 C 32.031 32.058 28.019 35.087 22.384 35.087 z" style="stroke: none; stroke-width: 1; stroke-dasharray: none; stroke-linecap: butt; stroke-linejoin: miter; stroke-miterlimit: 10; fill: rgb(0,0,0); fill-rule: nonzero; opacity: 1;" transform=" matrix(1 0 0 1 0 0) " stroke-linecap="round" />
	<path d="M 67.616 35.087 c -5.635 0 -9.646 -3.028 -11.685 -8.874 c -0.363 -1.043 0.188 -2.183 1.23 -2.547 c 1.04 -0.364 2.183 0.187 2.547 1.23 c 1.702 4.884 4.876 6.801 9.992 6.024 c 1.081 -0.16 2.11 0.586 2.276 1.678 c 0.165 1.092 -0.586 2.111 -1.679 2.277 C 69.368 35.017 68.474 35.087 67.616 35.087 z" style="stroke: none; stroke-width: 1; stroke-dasharray: none; stroke-linecap: butt; stroke-linejoin: miter; stroke-miterlimit: 10; fill: rgb(0,0,0); fill-rule: nonzero; opacity: 1;" transform=" matrix(1 0 0 1 0 0) " stroke-linecap="round" />
</g>
</svg>